<svg width="377" height="40" viewBox="0 0 377 40" fill="none" xmlns="http://www.w3.org/2000/svg">
<path d="M366.771 21.6316C370.188 21.0735 372.681 19.9953 374.418 18.3116C376.126 16.6375 377 14.1594 377 10.9719C377 7.32088 375.822 4.559 373.515 2.76188C371.179 0.926931 367.763 2.8428e-08 363.355 2.8428e-08H346V40H348.582V21.9437C348.582 21.9437 359.527 21.9437 363.179 21.9437C364.425 21.9437 365.878 21.7829 366.771 21.6316ZM348.582 19.5696V2.36463H363.355C367.066 2.36463 369.873 3.07401 371.689 4.47387C373.535 5.89264 374.477 8.08702 374.477 10.9719C374.477 13.8567 373.535 16.0511 371.689 17.4698C369.873 18.8602 367.066 19.5696 363.355 19.5696H348.582Z" fill="white"/>
<path d="M315.543 38.2979C313.097 37.1726 311.226 35.5177 309.93 33.3333C308.634 31.1489 308 28.5106 308 25.409V2.8428e-08H311.099V25.1726C311.099 27.9054 311.635 30.2128 312.707 32.104C313.779 33.9858 315.31 35.4137 317.288 36.3782C319.266 37.3428 321.644 37.8251 324.403 37.8251C327.2 37.8251 329.607 37.3428 331.615 36.3688C333.632 35.3948 335.172 33.9669 336.254 32.0662C337.336 30.1749 337.872 27.8771 337.872 25.182V0.00945831H341V25.4184C341 28.5201 340.367 31.1584 339.1 33.3333C337.833 35.5083 335.961 37.1631 333.486 38.2979C331.02 39.4326 327.989 40 324.393 40C320.943 39.9905 317.99 39.4232 315.543 38.2979Z" fill="white"/>
<path d="M273.937 37.5218C271.068 35.8666 268.856 33.5303 267.311 30.5036C265.767 27.4769 265 23.9678 265 19.9574C265 15.9754 265.777 12.4757 267.331 9.45848C268.886 6.44123 271.098 4.11444 273.967 2.46866C276.836 0.822888 280.194 2.8428e-08 284.03 2.8428e-08C287.906 2.8428e-08 291.273 0.822888 294.123 2.46866C296.972 4.11444 299.164 6.44123 300.698 9.45848C302.233 12.4757 303 15.9943 303 20.0141C303 24.0151 302.233 27.5242 300.689 30.5414C299.144 33.5587 296.942 35.8855 294.083 37.5313C291.223 39.177 287.876 39.9999 284.03 39.9999C280.164 40.0094 276.807 39.177 273.937 37.5218ZM270.071 29.378C271.337 32.0832 273.16 34.183 275.551 35.6679C277.932 37.1529 280.762 37.8907 284.03 37.8907C287.258 37.8907 290.058 37.1624 292.449 35.6963C294.83 34.2302 296.673 32.1494 297.959 29.4537C299.244 26.758 299.891 23.6178 299.891 20.0236C299.891 16.4199 299.244 13.2608 297.959 10.5651C296.673 7.86945 294.84 5.78859 292.449 4.33199C290.068 2.87538 287.258 2.14708 284.03 2.14708C280.842 2.14708 278.052 2.87538 275.661 4.33199C273.27 5.78859 271.416 7.85999 270.121 10.5462C268.826 13.2324 268.178 16.3726 268.178 19.9574C268.168 23.5327 268.806 26.6729 270.071 29.378Z" fill="white"/>
<path d="M251.693 21.537C255.089 21.083 257.691 19.9953 259.418 18.3116C261.126 16.6375 262 14.1594 262 10.9719C262 7.32088 260.822 4.559 258.515 2.76188C256.179 0.926931 252.763 2.8428e-08 248.355 2.8428e-08H231V40H233.582V21.9437H246.716L258.702 40H261.548L249.445 21.641L251.693 21.537ZM233.592 19.5696V2.36463H248.365C252.076 2.36463 254.883 3.07401 256.699 4.47387C258.545 5.89264 259.487 8.08702 259.487 10.9719C259.487 13.8567 258.545 16.0511 256.699 17.4698C254.883 18.8602 252.076 19.5696 248.365 19.5696H233.592Z" fill="white"/>
<path d="M208.212 19.1369V21.227H221.262C221.093 30.117 214.204 37.3046 205.723 37.3046C197.531 37.3046 191.987 31.0627 191.579 21.4067C191.181 11.883 197.591 3.41864 205.863 2.52964C211.387 1.95273 218.594 3.54159 221.232 8.46891L223.521 7.39077C220.316 1.40421 212.214 -0.591313 205.574 0.146367C195.839 1.18668 188.563 10.5685 189.02 21.5013C189.468 32.3962 196.187 39.7163 205.723 39.7163C214.822 39.7163 222.307 32.6894 223.581 23.6103V40H226V19.1463L208.212 19.1369Z" fill="white"/>
<path d="M162.988 1.69862e-08H171.071L187 40H179.212L175.525 30.1031H158.416L154.817 40H147L162.988 1.69862e-08ZM173.549 24.7423L167 7L160.422 24.7423H173.549Z" fill="white"/>
<path fill-rule="evenodd" clip-rule="evenodd" d="M129.531 1.69862e-08C132.424 1.69862e-08 134.952 0.515873 137.116 1.54762C139.3 2.57937 140.983 4.00794 142.163 5.83333C143.344 7.65873 143.934 9.72222 143.934 12.0238C143.934 13.9484 143.56 15.6647 142.812 17.1726C142.084 18.6607 141.216 19.7067 139.802 20.9524C138.15 22.4079 135.901 23.2317 133.842 23.6933L144.5 40H136.5L126.5 24.256H119.29V40H112V1.69862e-08H129.531ZM119.29 18.9286H128.793C131.351 18.9286 133.329 18.3631 134.726 17.2321C136.123 16.0814 136.821 14.4147 136.821 12.2321C136.821 10.1091 136.133 8.49206 134.755 7.38095C133.378 6.25 131.361 5.68452 128.705 5.68452H119.29V18.9286Z" fill="white"/>
<path d="M78 1.69862e-08H106.449V5.71429H85.221V16.5243H104.39V22.1502H85.221V34.3446H107V40H78V1.69862e-08Z" fill="white"/>
<path d="M41 1.69862e-08H57.5246C62.0905 1.69862e-08 65.5489 0.932744 67.8998 2.79823C70.2508 4.64408 71.4262 7.22631 71.4262 10.5449C71.4262 12.43 70.9502 14.0795 69.9982 15.4934C69.0461 16.9072 67.725 18.0363 66.0346 18.8807C67.2975 19.2931 68.4536 19.9509 69.5027 20.8542C70.5713 21.7378 71.4165 22.8277 72.0383 24.1237C72.6794 25.4197 73 26.8336 73 28.3652C73 30.6235 72.4657 32.6362 71.3971 34.4035C70.3479 36.1512 68.813 37.5258 66.7924 38.5272C64.7911 39.5091 62.4013 40 59.623 40H41V1.69862e-08ZM58.3989 34.3446C59.7007 34.3446 60.8859 34.109 61.9545 33.6377C63.0425 33.1468 63.8974 32.4497 64.5191 31.5464C65.1603 30.6431 65.4809 29.5827 65.4809 28.3652C65.4809 27.1674 65.1894 26.107 64.6066 25.1841C64.0237 24.2612 63.1882 23.5444 62.1002 23.0339C61.0121 22.5037 59.7201 22.2386 58.224 22.2386H48.2568V34.3446H58.3989ZM56.8251 16.6127C59.0012 16.6127 60.7207 16.1414 61.9836 15.1988C63.2659 14.2563 63.9071 12.8719 63.9071 11.0457C63.9071 9.3569 63.3242 8.05105 62.1585 7.12813C61.0121 6.18557 59.3024 5.71429 57.0291 5.71429H48.2568V16.6127H56.8251Z" fill="white"/>
<path d="M15.3648 24L0 1.69862e-08H8.44771L19 17L29.4934 1.69862e-08H38L22.694 24V40H15.3648V24Z" fill="white"/>
</svg>
